<svg width="129" height="38" viewBox="0 0 129 38" fill="none" xmlns="http://www.w3.org/2000/svg">
<path d="M28.473 18.908C28.3856 18.9779 28.3372 18.994 28.3278 18.9564C27.4771 18.9416 26.6265 18.9342 25.7758 18.9342C24.577 18.9342 23.7277 18.8959 23.2278 18.8193C21.2832 18.5223 19.6288 17.7166 18.2648 16.4023C15.4681 13.7065 14.6302 10.3299 15.751 6.27273C15.88 6.0362 16.005 5.78624 16.126 5.52284C17.4463 2.67849 19.8674 0.821902 22.9375 0.140549C23.3071 0.0585716 23.9454 0.0162388 24.8525 0.013551C29.1664 -0.00123178 33.4346 -0.00391975 37.6571 0.0054875C37.8211 0.0054875 37.8661 0.0787296 37.7922 0.225214L28.473 18.908Z" fill="#4141F9"/>
<path d="M15.751 6.27271C14.6302 10.3299 15.4681 13.7064 18.2648 16.4023C19.6288 17.7166 21.2831 18.5223 23.2277 18.8193C23.7277 18.8959 24.577 18.9342 25.7758 18.9342C26.6264 18.9342 27.4771 18.9416 28.3278 18.9564L18.8917 38L0.108104 37.9939C0.0896412 37.9938 0.071515 37.989 0.0554287 37.9799C0.0393425 37.9708 0.0258242 37.9578 0.0161477 37.9421C0.00647116 37.9264 0.000953335 37.9085 0.000112865 37.89C-0.000727604 37.8716 0.00313678 37.8532 0.0113431 37.8367L15.751 6.27271Z" fill="#F541F9"/>
<path d="M18.8916 38L28.3277 18.9564C28.3371 18.994 28.3855 18.9779 28.4729 18.908C29.6649 18.8986 30.8442 18.8939 32.0107 18.8939C33.2242 18.8953 34.4922 19.1997 35.8146 19.8071C40.1466 21.7987 42.2592 26.7396 40.8582 31.2913C39.8684 34.5026 37.1692 37.0506 33.8249 37.7823C33.161 37.9275 32.1457 38 30.779 38C26.8548 37.9987 22.8924 37.9987 18.8916 38Z" fill="#4141F9"/>
<path d="M58.0995 22.2875C58.302 22.3454 58.5624 22.3888 58.8807 22.4177C59.199 22.4322 59.5028 22.4394 59.7921 22.4394C60.3708 22.4394 60.8482 22.3237 61.2243 22.0922C61.6149 21.8463 61.8102 21.4701 61.8102 20.9638C61.8102 20.4864 61.6511 20.1464 61.3328 19.9439C61.0145 19.7414 60.5299 19.6401 59.8789 19.6401H58.0995V22.2875ZM58.0995 16.9927H59.6836C60.3057 16.9927 60.7541 16.877 61.029 16.6455C61.3183 16.414 61.463 16.0741 61.463 15.6256C61.463 15.235 61.2966 14.924 60.9639 14.6925C60.6456 14.461 60.161 14.3453 59.51 14.3453C59.293 14.3453 59.0398 14.3525 58.7505 14.367C58.4756 14.3815 58.2586 14.4032 58.0995 14.4321V16.9927ZM59.51 25.3472C59.2641 25.3472 58.9747 25.34 58.642 25.3255C58.3093 25.311 57.9621 25.2821 57.6004 25.2387C57.2532 25.1953 56.906 25.1374 56.5588 25.0651C56.2116 25.0072 55.8933 24.9204 55.604 24.8047C54.8083 24.5009 54.4105 23.9729 54.4105 23.2206V13.0867C54.4105 12.7829 54.4901 12.5514 54.6492 12.3923C54.8228 12.2187 55.0543 12.0813 55.3436 11.98C55.8355 11.8064 56.4503 11.6834 57.1881 11.6111C57.9259 11.5243 58.6854 11.4809 59.4666 11.4809C61.3183 11.4809 62.7433 11.7919 63.7415 12.414C64.7397 13.0361 65.2388 13.9981 65.2388 15.3001C65.2388 15.9511 65.0507 16.5153 64.6746 16.9927C64.2985 17.4556 63.7921 17.7956 63.1556 18.0126C63.8789 18.2151 64.4793 18.584 64.9567 19.1193C65.4486 19.6546 65.6945 20.3273 65.6945 21.1374C65.6945 22.5696 65.1592 23.6329 64.0887 24.3273C63.0326 25.0072 61.5064 25.3472 59.51 25.3472ZM73.0771 25.3472C72.2235 25.3472 71.4279 25.2315 70.6901 25C69.9667 24.7541 69.3302 24.3924 68.7805 23.915C68.2452 23.4376 67.8184 22.8372 67.5002 22.1139C67.1964 21.3906 67.0445 20.5443 67.0445 19.575C67.0445 18.6202 67.1964 17.8028 67.5002 17.1229C67.8184 16.4285 68.2307 15.8643 68.7371 15.4303C69.2434 14.9818 69.8221 14.6563 70.4731 14.4538C71.1241 14.2368 71.7895 14.1283 72.4695 14.1283C73.2362 14.1283 73.9306 14.244 74.5527 14.4755C75.1892 14.707 75.7317 15.0252 76.1802 15.4303C76.6431 15.8354 76.9975 16.32 77.2435 16.8842C77.5039 17.4484 77.6341 18.0632 77.6341 18.7287C77.6341 19.2206 77.4966 19.5967 77.2218 19.8571C76.9469 20.1175 76.5635 20.2839 76.0717 20.3562L70.7118 21.1591C70.8709 21.6365 71.1964 21.9982 71.6883 22.2441C72.1801 22.4756 72.7443 22.5913 73.3809 22.5913C73.974 22.5913 74.531 22.519 75.0518 22.3743C75.587 22.2152 76.021 22.0343 76.3538 21.8318C76.5852 21.9765 76.7805 22.179 76.9397 22.4394C77.0988 22.6998 77.1784 22.9747 77.1784 23.264C77.1784 23.915 76.8746 24.3996 76.267 24.7179C75.804 24.9638 75.2832 25.1302 74.7046 25.217C74.1259 25.3038 73.5834 25.3472 73.0771 25.3472ZM72.4695 16.8191C72.1223 16.8191 71.8185 16.877 71.5581 16.9927C71.3121 17.1084 71.1096 17.2603 70.9505 17.4484C70.7913 17.622 70.6684 17.8245 70.5816 18.056C70.5092 18.273 70.4658 18.4972 70.4514 18.7287L74.1621 18.1211C74.1187 17.8318 73.9595 17.5424 73.6847 17.2531C73.4098 16.9638 73.0047 16.8191 72.4695 16.8191ZM84.9866 25.3472C84.1331 25.3472 83.3374 25.2315 82.5996 25C81.8763 24.7541 81.2398 24.3924 80.69 23.915C80.1548 23.4376 79.728 22.8372 79.4097 22.1139C79.1059 21.3906 78.954 20.5443 78.954 19.575C78.954 18.6202 79.1059 17.8028 79.4097 17.1229C79.728 16.4285 80.1403 15.8643 80.6466 15.4303C81.153 14.9818 81.7316 14.6563 82.3826 14.4538C83.0336 14.2368 83.6991 14.1283 84.379 14.1283C85.1458 14.1283 85.8402 14.244 86.4622 14.4755C87.0988 14.707 87.6413 15.0252 88.0897 15.4303C88.5527 15.8354 88.9071 16.32 89.153 16.8842C89.4134 17.4484 89.5436 18.0632 89.5436 18.7287C89.5436 19.2206 89.4062 19.5967 89.1313 19.8571C88.8565 20.1175 88.4731 20.2839 87.9812 20.3562L82.6213 21.1591C82.7805 21.6365 83.106 21.9982 83.5978 22.2441C84.0897 22.4756 84.6539 22.5913 85.2904 22.5913C85.8836 22.5913 86.4405 22.519 86.9613 22.3743C87.4966 22.2152 87.9306 22.0343 88.2633 21.8318C88.4948 21.9765 88.6901 22.179 88.8492 22.4394C89.0084 22.6998 89.0879 22.9747 89.0879 23.264C89.0879 23.915 88.7841 24.3996 88.1765 24.7179C87.7136 24.9638 87.1928 25.1302 86.6141 25.217C86.0355 25.3038 85.493 25.3472 84.9866 25.3472ZM84.379 16.8191C84.0318 16.8191 83.728 16.877 83.4676 16.9927C83.2217 17.1084 83.0192 17.2603 82.86 17.4484C82.7009 17.622 82.5779 17.8245 82.4911 18.056C82.4188 18.273 82.3754 18.4972 82.3609 18.7287L86.0716 18.1211C86.0282 17.8318 85.8691 17.5424 85.5942 17.2531C85.3194 16.9638 84.9143 16.8191 84.379 16.8191ZM91.3627 10.8733C91.5074 10.8299 91.7389 10.7865 92.0571 10.7431C92.3754 10.6852 92.7009 10.6563 93.0336 10.6563C93.3519 10.6563 93.634 10.678 93.8799 10.7214C94.1403 10.7648 94.3573 10.8516 94.5309 10.9818C94.7045 11.112 94.8347 11.2928 94.9215 11.5243C95.0083 11.7413 95.0517 12.0306 95.0517 12.3923V14.5189C95.4134 14.3742 95.7534 14.273 96.0716 14.2151C96.4044 14.1572 96.766 14.1283 97.1566 14.1283C97.851 14.1283 98.5093 14.2513 99.1313 14.4972C99.7534 14.7431 100.303 15.1048 100.781 15.5822C101.258 16.0451 101.634 16.6238 101.909 17.3182C102.184 18.0126 102.321 18.8155 102.321 19.7269C102.321 20.6672 102.177 21.4918 101.887 22.2007C101.612 22.8951 101.222 23.4738 100.715 23.9367C100.209 24.3996 99.587 24.7541 98.8492 25C98.1259 25.2315 97.323 25.3472 96.4405 25.3472C95.4857 25.3472 94.6756 25.2315 94.0101 25C93.3447 24.783 92.7805 24.5081 92.3175 24.1754C91.681 23.7269 91.3627 23.1483 91.3627 22.4394V10.8733ZM96.4405 22.4394C97.106 22.4394 97.6196 22.2152 97.9812 21.7667C98.3574 21.3038 98.5454 20.6238 98.5454 19.7269C98.5454 18.8155 98.3574 18.1356 97.9812 17.6871C97.6051 17.2386 97.0988 17.0144 96.4622 17.0144C96.1729 17.0144 95.9197 17.0433 95.7027 17.1012C95.5002 17.1591 95.276 17.2459 95.03 17.3616V22.0922C95.1892 22.1935 95.3772 22.2803 95.5942 22.3526C95.8257 22.4105 96.1078 22.4394 96.4405 22.4394ZM115.034 19.7269C115.034 20.6238 114.897 21.4267 114.622 22.1356C114.347 22.83 113.956 23.4159 113.45 23.8933C112.958 24.3707 112.365 24.7324 111.671 24.9783C110.976 25.2242 110.202 25.3472 109.349 25.3472C108.495 25.3472 107.721 25.217 107.027 24.9566C106.332 24.6962 105.732 24.3273 105.226 23.8499C104.734 23.358 104.35 22.7649 104.076 22.0705C103.801 21.3761 103.663 20.5949 103.663 19.7269C103.663 18.8734 103.801 18.0994 104.076 17.405C104.35 16.7106 104.734 16.1247 105.226 15.6473C105.732 15.1554 106.332 14.7793 107.027 14.5189C107.721 14.2585 108.495 14.1283 109.349 14.1283C110.202 14.1283 110.976 14.2657 111.671 14.5406C112.365 14.801 112.958 15.1771 113.45 15.669C113.956 16.1464 114.347 16.7323 114.622 17.4267C114.897 18.1211 115.034 18.8878 115.034 19.7269ZM107.439 19.7269C107.439 20.6094 107.605 21.2893 107.938 21.7667C108.285 22.2296 108.763 22.4611 109.37 22.4611C109.978 22.4611 110.441 22.2224 110.759 21.745C111.092 21.2676 111.258 20.5949 111.258 19.7269C111.258 18.8589 111.092 18.1934 110.759 17.7305C110.426 17.2531 109.956 17.0144 109.349 17.0144C108.741 17.0144 108.271 17.2531 107.938 17.7305C107.605 18.1934 107.439 18.8589 107.439 19.7269ZM121.673 14.1283C122.541 14.1283 123.344 14.244 124.082 14.4755C124.834 14.6925 125.478 15.0325 126.013 15.4954C126.548 15.9583 126.968 16.5442 127.271 17.2531C127.575 17.9475 127.727 18.7793 127.727 19.7486C127.727 20.6745 127.597 21.4846 127.337 22.179C127.076 22.8734 126.707 23.4593 126.23 23.9367C125.752 24.3996 125.174 24.7468 124.494 24.9783C123.828 25.2098 123.083 25.3255 122.259 25.3255C121.637 25.3255 121.058 25.2315 120.523 25.0434V28.6456C120.378 28.689 120.147 28.7324 119.828 28.7758C119.51 28.8337 119.185 28.8626 118.852 28.8626C118.534 28.8626 118.244 28.8409 117.984 28.7975C117.738 28.7541 117.528 28.6673 117.355 28.5371C117.181 28.4069 117.051 28.2261 116.964 27.9946C116.877 27.7776 116.834 27.4883 116.834 27.1266V16.7106C116.834 16.32 116.913 16.0017 117.072 15.7558C117.246 15.5099 117.478 15.2856 117.767 15.0831C118.215 14.7938 118.772 14.5623 119.438 14.3887C120.103 14.2151 120.848 14.1283 121.673 14.1283ZM121.716 22.4177C123.206 22.4177 123.951 21.528 123.951 19.7486C123.951 18.8227 123.763 18.1356 123.387 17.6871C123.026 17.2386 122.497 17.0144 121.803 17.0144C121.528 17.0144 121.282 17.0506 121.065 17.1229C120.848 17.1808 120.66 17.2531 120.501 17.3399V22.1139C120.675 22.2007 120.863 22.273 121.065 22.3309C121.268 22.3888 121.485 22.4177 121.716 22.4177Z" fill="#4141F9"/>
</svg>
